<svg width="16" height="16" viewBox="0 0 16 16" fill="none" xmlns="http://www.w3.org/2000/svg">
<path d="M0.213022 14.7586L6.97045 8.00111L0.213022 1.24189C-0.0710075 0.957884 -0.0710075 0.497038 0.213022 0.213008C0.497033 -0.0710027 0.957898 -0.0710027 1.24191 0.213008L7.99933 6.97047L14.7585 0.213046C15.0426 -0.0709835 15.5034 -0.0709835 15.7874 0.213046C16.0714 0.497057 16.0714 0.957903 15.7874 1.24193L9.02822 7.99934L15.7874 14.7586C16.0714 15.0426 16.0714 15.5034 15.7874 15.7874C15.6445 15.9285 15.4588 16 15.273 16C15.0872 16 14.9014 15.9285 14.7585 15.7874L8.00112 9.02822L1.24191 15.7856C1.09901 15.9268 0.913237 15.9982 0.727466 15.9982C0.541694 15.9982 0.355923 15.9268 0.213022 15.7856C-0.0709884 15.5016 -0.0709884 15.0426 0.213022 14.7586Z" fill="#333333"/>
</svg>
