<svg t="1730554865123" class="icon" viewBox="0 0 1024 1024" version="1.1" xmlns="http://www.w3.org/2000/svg" p-id="13499" width="200" height="200"><path d="M950.930517 512q0 89.161143-34.889143 170.276571t-93.696 139.995429-139.995429 93.696-170.276571 34.889143q-98.304 0-186.88-41.398857t-150.820571-116.882286q-4.022857-5.705143-3.730286-12.873143t4.827429-11.702857l78.262857-78.848q5.705143-5.12 14.262857-5.12 9.142857 1.170286 13.165714 6.875429 41.691429 54.272 102.253714 83.968t128.585143 29.696q59.465143 0 113.444571-23.113143t93.403429-62.537143 62.537143-93.403429 23.113143-113.444571-23.113143-113.444571-62.537143-93.403429-93.403429-62.537143-113.444571-23.113143q-56.027429 0-107.446857 20.260571t-91.428571 58.002286l78.262857 78.848q17.700571 17.115429 7.972571 39.424-9.728 22.820571-33.718857 22.820571l-256 0q-14.848 0-25.746286-10.825143t-10.825143-25.746286l0-256q0-23.990857 22.820571-33.718857 22.308571-9.728 39.424 7.972571l74.313143 73.728q61.147429-57.709714 139.702857-89.453714t162.596571-31.744q89.161143 0 170.276571 34.889143t139.995429 93.696 93.696 139.995429 34.889143 170.276571zM585.216232 347.428571l0 256q0 7.972571-5.12 13.165714t-13.165714 5.12l-182.857143 0q-7.972571 0-13.165714-5.12t-5.12-13.165714l0-36.571429q0-7.972571 5.12-13.165714t13.165714-5.12l128 0 0-201.142857q0-7.972571 5.12-13.165714t13.165714-5.12l36.571429 0q7.972571 0 13.165714 5.12t5.12 13.165714z" fill="#515151" p-id="13500"></path></svg>
